<svg width="77" height="25" viewBox="0 0 77 25" fill="none" xmlns="http://www.w3.org/2000/svg">
<path d="M26.6875 1H26.25V2.14583C26.25 2.52396 25.9547 2.83333 25.5938 2.83333H23.4062C23.0453 2.83333 22.75 2.52396 22.75 2.14583V1H5.25V2.14583C5.25 2.52396 4.95469 2.83333 4.59375 2.83333H2.40625C2.04531 2.83333 1.75 2.52396 1.75 2.14583V1H1.3125C0.585156 1 0 1.61302 0 2.375V21.625C0 22.387 0.585156 23 1.3125 23H1.75V21.8542C1.75 21.476 2.04531 21.1667 2.40625 21.1667H4.59375C4.95469 21.1667 5.25 21.476 5.25 21.8542V23H22.75V21.8542C22.75 21.476 23.0453 21.1667 23.4062 21.1667H25.5938C25.9547 21.1667 26.25 21.476 26.25 21.8542V23H26.6875C27.4148 23 28 22.387 28 21.625V2.375C28 1.61302 27.4148 1 26.6875 1ZM5.25 18.6458C5.25 19.024 4.95469 19.3333 4.59375 19.3333H2.40625C2.04531 19.3333 1.75 19.024 1.75 18.6458V16.3542C1.75 15.976 2.04531 15.6667 2.40625 15.6667H4.59375C4.95469 15.6667 5.25 15.976 5.25 16.3542V18.6458ZM5.25 13.1458C5.25 13.524 4.95469 13.8333 4.59375 13.8333H2.40625C2.04531 13.8333 1.75 13.524 1.75 13.1458V10.8542C1.75 10.476 2.04531 10.1667 2.40625 10.1667H4.59375C4.95469 10.1667 5.25 10.476 5.25 10.8542V13.1458ZM5.25 7.64583C5.25 8.02396 4.95469 8.33333 4.59375 8.33333H2.40625C2.04531 8.33333 1.75 8.02396 1.75 7.64583V5.35417C1.75 4.97604 2.04531 4.66667 2.40625 4.66667H4.59375C4.95469 4.66667 5.25 4.97604 5.25 5.35417V7.64583ZM20.125 19.5625C20.125 19.9406 19.8297 20.25 19.4688 20.25H8.53125C8.17031 20.25 7.875 19.9406 7.875 19.5625V14.0625C7.875 13.6844 8.17031 13.375 8.53125 13.375H19.4688C19.8297 13.375 20.125 13.6844 20.125 14.0625V19.5625ZM20.125 9.9375C20.125 10.3156 19.8297 10.625 19.4688 10.625H8.53125C8.17031 10.625 7.875 10.3156 7.875 9.9375V4.4375C7.875 4.05938 8.17031 3.75 8.53125 3.75H19.4688C19.8297 3.75 20.125 4.05938 20.125 4.4375V9.9375ZM26.25 18.6458C26.25 19.024 25.9547 19.3333 25.5938 19.3333H23.4062C23.0453 19.3333 22.75 19.024 22.75 18.6458V16.3542C22.75 15.976 23.0453 15.6667 23.4062 15.6667H25.5938C25.9547 15.6667 26.25 15.976 26.25 16.3542V18.6458ZM26.25 13.1458C26.25 13.524 25.9547 13.8333 25.5938 13.8333H23.4062C23.0453 13.8333 22.75 13.524 22.75 13.1458V10.8542C22.75 10.476 23.0453 10.1667 23.4062 10.1667H25.5938C25.9547 10.1667 26.25 10.476 26.25 10.8542V13.1458ZM26.25 7.64583C26.25 8.02396 25.9547 8.33333 25.5938 8.33333H23.4062C23.0453 8.33333 22.75 8.02396 22.75 7.64583V5.35417C22.75 4.97604 23.0453 4.66667 23.4062 4.66667H25.5938C25.9547 4.66667 26.25 4.97604 26.25 5.35417V7.64583Z" fill="#06203C"/>
<path d="M35.3457 2.46875L37.25 8.4043L39.1484 2.46875H41.8555V11H39.793V9.00781L39.9922 4.92969L37.9297 11H36.5703L34.502 4.92383L34.7012 9.00781V11H32.6445V2.46875H35.3457ZM50.3926 6.91016C50.3926 7.74219 50.2383 8.47852 49.9297 9.11914C49.6211 9.75977 49.1816 10.2539 48.6113 10.6016C48.0449 10.9453 47.3984 11.1172 46.6719 11.1172C45.9453 11.1172 45.3008 10.9512 44.7383 10.6191C44.1758 10.2832 43.7363 9.80469 43.4199 9.18359C43.1074 8.5625 42.9434 7.84961 42.9277 7.04492V6.56445C42.9277 5.72852 43.0801 4.99219 43.3848 4.35547C43.6934 3.71484 44.1328 3.2207 44.7031 2.87305C45.2773 2.52539 45.9297 2.35156 46.6602 2.35156C47.3828 2.35156 48.0273 2.52344 48.5938 2.86719C49.1602 3.21094 49.5996 3.70117 49.9121 4.33789C50.2285 4.9707 50.3887 5.69727 50.3926 6.51758V6.91016ZM48.3008 6.55273C48.3008 5.70508 48.1582 5.0625 47.873 4.625C47.5918 4.18359 47.1875 3.96289 46.6602 3.96289C45.6289 3.96289 45.084 4.73633 45.0254 6.2832L45.0195 6.91016C45.0195 7.74609 45.1582 8.38867 45.4355 8.83789C45.7129 9.28711 46.125 9.51172 46.6719 9.51172C47.1914 9.51172 47.5918 9.29102 47.873 8.84961C48.1543 8.4082 48.2969 7.77344 48.3008 6.94531V6.55273ZM54.6348 8.67969L56.334 2.46875H58.6309L55.7598 11H53.5098L50.6621 2.46875H52.9414L54.6348 8.67969ZM61.4492 11H59.3984V2.46875H61.4492V11ZM68.1699 7.38477H64.9355V9.41797H68.7559V11H62.8789V2.46875H68.7676V4.05664H64.9355V5.85547H68.1699V7.38477ZM73.9941 8.73242C73.9941 8.43164 73.8867 8.19727 73.6719 8.0293C73.4609 7.86133 73.0879 7.6875 72.5527 7.50781C72.0176 7.32812 71.5801 7.1543 71.2402 6.98633C70.1348 6.44336 69.582 5.69727 69.582 4.74805C69.582 4.27539 69.7188 3.85937 69.9922 3.5C70.2695 3.13672 70.6602 2.85547 71.1641 2.65625C71.668 2.45312 72.2344 2.35156 72.8633 2.35156C73.4766 2.35156 74.0254 2.46094 74.5098 2.67969C74.998 2.89844 75.377 3.21094 75.6465 3.61719C75.916 4.01953 76.0508 4.48047 76.0508 5H74C74 4.65234 73.8926 4.38281 73.6777 4.19141C73.4668 4 73.1797 3.9043 72.8164 3.9043C72.4492 3.9043 72.1582 3.98633 71.9434 4.15039C71.7324 4.31055 71.627 4.51562 71.627 4.76562C71.627 4.98438 71.7441 5.18359 71.9785 5.36328C72.2129 5.53906 72.625 5.72266 73.2148 5.91406C73.8047 6.10156 74.2891 6.30469 74.668 6.52344C75.5898 7.05469 76.0508 7.78711 76.0508 8.7207C76.0508 9.4668 75.7695 10.0527 75.207 10.4785C74.6445 10.9043 73.873 11.1172 72.8926 11.1172C72.2012 11.1172 71.5742 10.9941 71.0117 10.748C70.4531 10.498 70.0312 10.1582 69.7461 9.72852C69.4648 9.29492 69.3242 8.79688 69.3242 8.23438H71.3867C71.3867 8.69141 71.5039 9.0293 71.7383 9.24805C71.9766 9.46289 72.3613 9.57031 72.8926 9.57031C73.2324 9.57031 73.5 9.49805 73.6953 9.35352C73.8945 9.20508 73.9941 8.99805 73.9941 8.73242Z" fill="#06203C"/>
<path d="M35.5039 18.1973C34.5391 17.9199 33.8359 17.5801 33.3945 17.1777C32.957 16.7715 32.7383 16.2715 32.7383 15.6777C32.7383 15.0059 33.0059 14.4512 33.541 14.0137C34.0801 13.5723 34.7793 13.3516 35.6387 13.3516C36.2246 13.3516 36.7461 13.4648 37.2031 13.6914C37.6641 13.918 38.0195 14.2305 38.2695 14.6289C38.5234 15.0273 38.6504 15.4629 38.6504 15.9355H37.5195C37.5195 15.4199 37.3555 15.0156 37.0273 14.7227C36.6992 14.4258 36.2363 14.2773 35.6387 14.2773C35.084 14.2773 34.6504 14.4004 34.3379 14.6465C34.0293 14.8887 33.875 15.2266 33.875 15.6602C33.875 16.0078 34.0215 16.3027 34.3145 16.5449C34.6113 16.7832 35.1133 17.002 35.8203 17.2012C36.5312 17.4004 37.0859 17.6211 37.4844 17.8633C37.8867 18.1016 38.1836 18.3809 38.375 18.7012C38.5703 19.0215 38.668 19.3984 38.668 19.832C38.668 20.5234 38.3984 21.0781 37.8594 21.4961C37.3203 21.9102 36.5996 22.1172 35.6973 22.1172C35.1113 22.1172 34.5645 22.0059 34.0566 21.7832C33.5488 21.5566 33.1562 21.248 32.8789 20.8574C32.6055 20.4668 32.4688 20.0234 32.4688 19.5273H33.5996C33.5996 20.043 33.7891 20.4512 34.168 20.752C34.5508 21.0488 35.0605 21.1973 35.6973 21.1973C36.291 21.1973 36.7461 21.0762 37.0625 20.834C37.3789 20.5918 37.5371 20.2617 37.5371 19.8438C37.5371 19.4258 37.3906 19.1035 37.0977 18.877C36.8047 18.6465 36.2734 18.4199 35.5039 18.1973ZM41.416 14.125V15.6602H42.5996V16.498H41.416V20.4297C41.416 20.6836 41.4688 20.875 41.5742 21.0039C41.6797 21.1289 41.8594 21.1914 42.1133 21.1914C42.2383 21.1914 42.4102 21.168 42.6289 21.1211V22C42.3438 22.0781 42.0664 22.1172 41.7969 22.1172C41.3125 22.1172 40.9473 21.9707 40.7012 21.6777C40.4551 21.3848 40.332 20.9688 40.332 20.4297V16.498H39.1777V15.6602H40.332V14.125H41.416ZM43.4668 18.7715C43.4668 18.1504 43.5879 17.5918 43.8301 17.0957C44.0762 16.5996 44.416 16.2168 44.8496 15.9473C45.2871 15.6777 45.7852 15.543 46.3438 15.543C47.207 15.543 47.9043 15.8418 48.4355 16.4395C48.9707 17.0371 49.2383 17.832 49.2383 18.8242V18.9004C49.2383 19.5176 49.1191 20.0723 48.8809 20.5645C48.6465 21.0527 48.3086 21.4336 47.8672 21.707C47.4297 21.9805 46.9258 22.1172 46.3555 22.1172C45.4961 22.1172 44.7988 21.8184 44.2637 21.2207C43.7324 20.623 43.4668 19.832 43.4668 18.8477V18.7715ZM44.5566 18.9004C44.5566 19.6035 44.7188 20.168 45.043 20.5938C45.3711 21.0195 45.8086 21.2324 46.3555 21.2324C46.9062 21.2324 47.3438 21.0176 47.668 20.5879C47.9922 20.1543 48.1543 19.5488 48.1543 18.7715C48.1543 18.0762 47.9883 17.5137 47.6562 17.084C47.3281 16.6504 46.8906 16.4336 46.3438 16.4336C45.8086 16.4336 45.377 16.6465 45.0488 17.0723C44.7207 17.498 44.5566 18.1074 44.5566 18.9004ZM53.6621 16.6328C53.498 16.6055 53.3203 16.5918 53.1289 16.5918C52.418 16.5918 51.9355 16.8945 51.6816 17.5V22H50.5977V15.6602H51.6523L51.6699 16.3926C52.0254 15.8262 52.5293 15.543 53.1816 15.543C53.3926 15.543 53.5527 15.5703 53.6621 15.625V16.6328ZM57.1777 22.1172C56.3184 22.1172 55.6191 21.8359 55.0801 21.2734C54.541 20.707 54.2715 19.9512 54.2715 19.0059V18.8066C54.2715 18.1777 54.3906 17.6172 54.6289 17.125C54.8711 16.6289 55.207 16.2422 55.6367 15.9648C56.0703 15.6836 56.5391 15.543 57.043 15.543C57.8672 15.543 58.5078 15.8145 58.9648 16.3574C59.4219 16.9004 59.6504 17.6777 59.6504 18.6895V19.1406H55.3555C55.3711 19.7656 55.5527 20.2715 55.9004 20.6582C56.252 21.041 56.6973 21.2324 57.2363 21.2324C57.6191 21.2324 57.9434 21.1543 58.209 20.998C58.4746 20.8418 58.707 20.6348 58.9062 20.377L59.5684 20.8926C59.0371 21.709 58.2402 22.1172 57.1777 22.1172ZM57.043 16.4336C56.6055 16.4336 56.2383 16.5938 55.9414 16.9141C55.6445 17.2305 55.4609 17.6758 55.3906 18.25H58.5664V18.168C58.5352 17.6172 58.3867 17.1914 58.1211 16.8906C57.8555 16.5859 57.4961 16.4336 57.043 16.4336Z" fill="#06203C"/>
</svg>
